{
	"asset":{
		"generator":"Khronos glTF Blender I/O v4.0.44",
		"version":"2.0"
	},
	"extensionsUsed":[
		"KHR_materials_unlit"
	],
	"scene":0,
	"scenes":[
		{
			"name":"Scene",
			"nodes":[
				5,
				11,
				17,
				23
			]
		}
	],
	"nodes":[
		{
			"mesh":0,
			"name":"Cube.026_Line art _Red_0"
		},
		{
			"mesh":1,
			"name":"Cube.026_TT_checker_2_0"
		},
		{
			"children":[
				0,
				1
			],
			"name":"Cube.026",
			"rotation":[
				-0.3560822010040283,
				0.5767883062362671,
				0.5117043256759644,
				0.5279009342193604
			],
			"scale":[
				84.17904663085938,
				63.496822357177734,
				55.53314208984375
			],
			"translation":[
				-50.770389556884766,
				60.90915298461914,
				-284.3149108886719
			]
		},
		{
			"children":[
				2
			],
			"name":"RootNode.031"
		},
		{
			"children":[
				3
			],
			"name":"Mangrove Greenhouse.fbx.030",
			"rotation":[
				0.70710688829422,
				0,
				0,
				0.7071066498756409
			],
			"scale":[
				0.009999999776482582,
				0.010000001639127731,
				0.010000001639127731
			]
		},
		{
			"children":[
				4
			],
			"name":"ContainerFloating",
			"rotation":[
				-0.70710688829422,
				0,
				0,
				0.7071066498756409
			],
			"scale":[
				0.9433962106704712,
				0.9433963298797607,
				0.9433963298797607
			]
		},
		{
			"mesh":2,
			"name":"Circle.031_Line art Green _0.001"
		},
		{
			"mesh":3,
			"name":"Circle.031_TT_checker_4_0.001"
		},
		{
			"children":[
				6,
				7
			],
			"name":"Circle.072",
			"rotation":[
				-0.7071069478988647,
				0,
				0,
				0.7071065902709961
			],
			"scale":[
				55.94389343261719,
				55.94388961791992,
				55.94388961791992
			],
			"translation":[
				177.13136291503906,
				51.0869026184082,
				-276.18603515625
			]
		},
		{
			"children":[
				8
			],
			"name":"RootNode.032"
		},
		{
			"children":[
				9
			],
			"name":"Mangrove Greenhouse.fbx.031",
			"rotation":[
				0.70710688829422,
				0,
				0,
				0.7071066498756409
			],
			"scale":[
				0.009999999776482582,
				0.010000001639127731,
				0.010000001639127731
			]
		},
		{
			"children":[
				10
			],
			"name":"Lily1",
			"rotation":[
				-0.70710688829422,
				0,
				0,
				0.7071066498756409
			],
			"scale":[
				0.9433962106704712,
				0.9433963298797607,
				0.9433963298797607
			]
		},
		{
			"mesh":4,
			"name":"Circle.032_Line art Green _0"
		},
		{
			"mesh":5,
			"name":"Circle.032_TT_checker_4_0"
		},
		{
			"children":[
				12,
				13
			],
			"name":"Circle.032",
			"rotation":[
				-0.6336866021156311,
				-0.31375348567962646,
				-0.31375351548194885,
				0.6336866617202759
			],
			"scale":[
				73.0723648071289,
				73.0723648071289,
				73.0723648071289
			],
			"translation":[
				-43.376373291015625,
				51.73484802246094,
				-487.2649230957031
			]
		},
		{
			"children":[
				14
			],
			"name":"RootNode.033"
		},
		{
			"children":[
				15
			],
			"name":"Mangrove Greenhouse.fbx.032",
			"rotation":[
				0.70710688829422,
				0,
				0,
				0.7071066498756409
			],
			"scale":[
				0.009999999776482582,
				0.010000001639127731,
				0.010000001639127731
			]
		},
		{
			"children":[
				16
			],
			"name":"Lily2",
			"rotation":[
				-0.70710688829422,
				0,
				0,
				0.7071066498756409
			],
			"scale":[
				0.9433962106704712,
				0.9433963298797607,
				0.9433963298797607
			]
		},
		{
			"mesh":6,
			"name":"Cube.005_Line art_0"
		},
		{
			"mesh":7,
			"name":"Cube.005_TT_checker_1_0"
		},
		{
			"children":[
				18,
				19
			],
			"name":"Cube.005",
			"rotation":[
				-0.70710688829422,
				0,
				0,
				0.7071066498756409
			],
			"scale":[
				100,
				99.99999237060547,
				99.99999237060547
			],
			"translation":[
				578.2920532226562,
				100,
				161.02285766601562
			]
		},
		{
			"children":[
				20
			],
			"name":"RootNode.004"
		},
		{
			"children":[
				21
			],
			"name":"Mangrove Greenhouse.fbx.004",
			"rotation":[
				0.70710688829422,
				0,
				0,
				0.7071066498756409
			],
			"scale":[
				0.009999999776482582,
				0.010000001639127731,
				0.010000001639127731
			]
		},
		{
			"children":[
				22
			],
			"name":"Door1",
			"rotation":[
				-0.70710688829422,
				0,
				0,
				0.7071066498756409
			],
			"scale":[
				0.9433962106704712,
				0.9433963298797607,
				0.9433963298797607
			]
		}
	],
	"materials":[
		{
			"extensions":{
				"KHR_materials_unlit":{}
			},
			"name":"Line_art__Red.019",
			"pbrMetallicRoughness":{
				"baseColorFactor":[
					0.04011232778429985,
					0.0030307534616440535,
					0.0030307534616440535,
					1
				],
				"metallicFactor":0,
				"roughnessFactor":0.9
			}
		},
		{
			"doubleSided":true,
			"extensions":{
				"KHR_materials_unlit":{}
			},
			"name":"TT_checker_2.013",
			"pbrMetallicRoughness":{
				"baseColorTexture":{
					"index":0
				},
				"metallicFactor":0,
				"roughnessFactor":0.9
			}
		},
		{
			"extensions":{
				"KHR_materials_unlit":{}
			},
			"name":"Line_art_Green.004",
			"pbrMetallicRoughness":{
				"baseColorFactor":[
					0.001794205978512764,
					0.00607293052598834,
					0.004709916189312935,
					1
				],
				"metallicFactor":0,
				"roughnessFactor":0.9
			}
		},
		{
			"doubleSided":true,
			"extensions":{
				"KHR_materials_unlit":{}
			},
			"name":"TT_checker_4.006",
			"pbrMetallicRoughness":{
				"baseColorTexture":{
					"index":1
				},
				"metallicFactor":0,
				"roughnessFactor":0.9
			}
		},
		{
			"extensions":{
				"KHR_materials_unlit":{}
			},
			"name":"Line_art_Green.005",
			"pbrMetallicRoughness":{
				"baseColorFactor":[
					0.001794205978512764,
					0.00607293052598834,
					0.004709916189312935,
					1
				],
				"metallicFactor":0,
				"roughnessFactor":0.9
			}
		},
		{
			"doubleSided":true,
			"extensions":{
				"KHR_materials_unlit":{}
			},
			"name":"TT_checker_4.007",
			"pbrMetallicRoughness":{
				"baseColorTexture":{
					"index":2
				},
				"metallicFactor":0,
				"roughnessFactor":0.9
			}
		},
		{
			"extensions":{
				"KHR_materials_unlit":{}
			},
			"name":"Line_art.018",
			"pbrMetallicRoughness":{
				"baseColorFactor":[
					0.005118120927363634,
					0.006681978702545166,
					0.03421842306852341,
					1
				],
				"metallicFactor":0,
				"roughnessFactor":0.9
			}
		},
		{
			"doubleSided":true,
			"extensions":{
				"KHR_materials_unlit":{}
			},
			"name":"TT_checker_1.012",
			"pbrMetallicRoughness":{
				"baseColorTexture":{
					"index":3
				},
				"metallicFactor":0,
				"roughnessFactor":0.9
			}
		}
	],
	"meshes":[
		{
			"name":"Cube.026_Line art _Red_0.002",
			"primitives":[
				{
					"attributes":{
						"POSITION":0,
						"NORMAL":1,
						"TEXCOORD_0":2
					},
					"indices":3,
					"material":0
				}
			]
		},
		{
			"name":"Cube.026_TT_checker_2_0.002",
			"primitives":[
				{
					"attributes":{
						"POSITION":4,
						"NORMAL":5,
						"TEXCOORD_0":6
					},
					"indices":7,
					"material":1
				}
			]
		},
		{
			"name":"Circle.031_Line art Green _0.002",
			"primitives":[
				{
					"attributes":{
						"POSITION":8,
						"NORMAL":9,
						"TEXCOORD_0":10
					},
					"indices":11,
					"material":2
				}
			]
		},
		{
			"name":"Circle.031_TT_checker_4_0.002",
			"primitives":[
				{
					"attributes":{
						"POSITION":12,
						"NORMAL":13,
						"TEXCOORD_0":14
					},
					"indices":15,
					"material":3
				}
			]
		},
		{
			"name":"Circle.032_Line art Green _0.002",
			"primitives":[
				{
					"attributes":{
						"POSITION":16,
						"NORMAL":17,
						"TEXCOORD_0":18
					},
					"indices":11,
					"material":4
				}
			]
		},
		{
			"name":"Circle.032_TT_checker_4_0.002",
			"primitives":[
				{
					"attributes":{
						"POSITION":19,
						"NORMAL":20,
						"TEXCOORD_0":21
					},
					"indices":15,
					"material":5
				}
			]
		},
		{
			"name":"Cube.005_Line art_0.002",
			"primitives":[
				{
					"attributes":{
						"POSITION":22,
						"NORMAL":23,
						"TEXCOORD_0":24
					},
					"indices":25,
					"material":6
				}
			]
		},
		{
			"name":"Cube.005_TT_checker_1_0.002",
			"primitives":[
				{
					"attributes":{
						"POSITION":26,
						"NORMAL":27,
						"TEXCOORD_0":28
					},
					"indices":29,
					"material":7
				}
			]
		}
	],
	"textures":[
		{
			"sampler":0,
			"source":0
		},
		{
			"sampler":0,
			"source":1
		},
		{
			"sampler":0,
			"source":1
		},
		{
			"sampler":0,
			"source":2
		}
	],
	"images":[
		{
			"mimeType":"image/png",
			"name":"TT_checker_2_baseColor",
			"uri":"textures/TT_checker_2_baseColor.png"
		},
		{
			"mimeType":"image/png",
			"name":"TT_checker_4_baseColor",
			"uri":"textures/TT_checker_4_baseColor.png"
		},
		{
			"mimeType":"image/png",
			"name":"TT_checker_1_baseColor",
			"uri":"textures/TT_checker_1_baseColor.png"
		}
	],
	"accessors":[
		{
			"bufferView":0,
			"componentType":5126,
			"count":52,
			"max":[
				0.43485909700393677,
				0.43485891819000244,
				0.34282824397087097
			],
			"min":[
				-0.4348587691783905,
				-0.43485891819000244,
				-0.31569215655326843
			],
			"type":"VEC3"
		},
		{
			"bufferView":1,
			"componentType":5126,
			"count":52,
			"type":"VEC3"
		},
		{
			"bufferView":2,
			"componentType":5126,
			"count":52,
			"type":"VEC2"
		},
		{
			"bufferView":3,
			"componentType":5123,
			"count":78,
			"type":"SCALAR"
		},
		{
			"bufferView":4,
			"componentType":5126,
			"count":56,
			"max":[
				0.43485909700393677,
				0.43485891819000244,
				0.3156922161579132
			],
			"min":[
				-0.4348587691783905,
				-0.43485891819000244,
				-0.31569215655326843
			],
			"type":"VEC3"
		},
		{
			"bufferView":5,
			"componentType":5126,
			"count":56,
			"type":"VEC3"
		},
		{
			"bufferView":6,
			"componentType":5126,
			"count":56,
			"type":"VEC2"
		},
		{
			"bufferView":7,
			"componentType":5123,
			"count":102,
			"type":"SCALAR"
		},
		{
			"bufferView":8,
			"componentType":5126,
			"count":76,
			"max":[
				1.0237714052200317,
				1.0237714052200317,
				0.29346707463264465
			],
			"min":[
				-1.0237714052200317,
				-1.0237714052200317,
				-0.04326927289366722
			],
			"type":"VEC3"
		},
		{
			"bufferView":9,
			"componentType":5126,
			"count":76,
			"type":"VEC3"
		},
		{
			"bufferView":10,
			"componentType":5126,
			"count":76,
			"type":"VEC2"
		},
		{
			"bufferView":11,
			"componentType":5123,
			"count":180,
			"type":"SCALAR"
		},
		{
			"bufferView":12,
			"componentType":5126,
			"count":76,
			"max":[
				1,
				1,
				0.2675684094429016
			],
			"min":[
				-1,
				-1,
				-0.024361401796340942
			],
			"type":"VEC3"
		},
		{
			"bufferView":13,
			"componentType":5126,
			"count":76,
			"type":"VEC3"
		},
		{
			"bufferView":14,
			"componentType":5126,
			"count":76,
			"type":"VEC2"
		},
		{
			"bufferView":15,
			"componentType":5123,
			"count":180,
			"type":"SCALAR"
		},
		{
			"bufferView":16,
			"componentType":5126,
			"count":76,
			"max":[
				1.0237714052200317,
				1.0237714052200317,
				0.29346707463264465
			],
			"min":[
				-1.0237714052200317,
				-1.0237714052200317,
				-0.04326927289366722
			],
			"type":"VEC3"
		},
		{
			"bufferView":17,
			"componentType":5126,
			"count":76,
			"type":"VEC3"
		},
		{
			"bufferView":18,
			"componentType":5126,
			"count":76,
			"type":"VEC2"
		},
		{
			"bufferView":19,
			"componentType":5126,
			"count":76,
			"max":[
				1,
				1,
				0.2675684094429016
			],
			"min":[
				-1,
				-1,
				-0.024361401796340942
			],
			"type":"VEC3"
		},
		{
			"bufferView":20,
			"componentType":5126,
			"count":76,
			"type":"VEC3"
		},
		{
			"bufferView":21,
			"componentType":5126,
			"count":76,
			"type":"VEC2"
		},
		{
			"bufferView":22,
			"componentType":5126,
			"count":2532,
			"max":[
				0.8057234287261963,
				1.616755485534668,
				2.8055052757263184
			],
			"min":[
				-0.8057234287261963,
				-1.616755485534668,
				-0.9972484111785889
			],
			"type":"VEC3"
		},
		{
			"bufferView":23,
			"componentType":5126,
			"count":2532,
			"type":"VEC3"
		},
		{
			"bufferView":24,
			"componentType":5126,
			"count":2532,
			"type":"VEC2"
		},
		{
			"bufferView":25,
			"componentType":5123,
			"count":3852,
			"type":"SCALAR"
		},
		{
			"bufferView":26,
			"componentType":5126,
			"count":2220,
			"max":[
				0.7687824368476868,
				1.5773056745529175,
				2.765505313873291
			],
			"min":[
				-0.7687824368476868,
				-1.5773056745529175,
				-0.9981003999710083
			],
			"type":"VEC3"
		},
		{
			"bufferView":27,
			"componentType":5126,
			"count":2220,
			"type":"VEC3"
		},
		{
			"bufferView":28,
			"componentType":5126,
			"count":2220,
			"type":"VEC2"
		},
		{
			"bufferView":29,
			"componentType":5123,
			"count":2988,
			"type":"SCALAR"
		}
	],
	"bufferViews":[
		{
			"buffer":0,
			"byteLength":624,
			"byteOffset":0,
			"target":34962
		},
		{
			"buffer":0,
			"byteLength":624,
			"byteOffset":624,
			"target":34962
		},
		{
			"buffer":0,
			"byteLength":416,
			"byteOffset":1248,
			"target":34962
		},
		{
			"buffer":0,
			"byteLength":156,
			"byteOffset":1664,
			"target":34963
		},
		{
			"buffer":0,
			"byteLength":672,
			"byteOffset":1820,
			"target":34962
		},
		{
			"buffer":0,
			"byteLength":672,
			"byteOffset":2492,
			"target":34962
		},
		{
			"buffer":0,
			"byteLength":448,
			"byteOffset":3164,
			"target":34962
		},
		{
			"buffer":0,
			"byteLength":204,
			"byteOffset":3612,
			"target":34963
		},
		{
			"buffer":0,
			"byteLength":912,
			"byteOffset":3816,
			"target":34962
		},
		{
			"buffer":0,
			"byteLength":912,
			"byteOffset":4728,
			"target":34962
		},
		{
			"buffer":0,
			"byteLength":608,
			"byteOffset":5640,
			"target":34962
		},
		{
			"buffer":0,
			"byteLength":360,
			"byteOffset":6248,
			"target":34963
		},
		{
			"buffer":0,
			"byteLength":912,
			"byteOffset":6608,
			"target":34962
		},
		{
			"buffer":0,
			"byteLength":912,
			"byteOffset":7520,
			"target":34962
		},
		{
			"buffer":0,
			"byteLength":608,
			"byteOffset":8432,
			"target":34962
		},
		{
			"buffer":0,
			"byteLength":360,
			"byteOffset":9040,
			"target":34963
		},
		{
			"buffer":0,
			"byteLength":912,
			"byteOffset":9400,
			"target":34962
		},
		{
			"buffer":0,
			"byteLength":912,
			"byteOffset":10312,
			"target":34962
		},
		{
			"buffer":0,
			"byteLength":608,
			"byteOffset":11224,
			"target":34962
		},
		{
			"buffer":0,
			"byteLength":912,
			"byteOffset":11832,
			"target":34962
		},
		{
			"buffer":0,
			"byteLength":912,
			"byteOffset":12744,
			"target":34962
		},
		{
			"buffer":0,
			"byteLength":608,
			"byteOffset":13656,
			"target":34962
		},
		{
			"buffer":0,
			"byteLength":30384,
			"byteOffset":14264,
			"target":34962
		},
		{
			"buffer":0,
			"byteLength":30384,
			"byteOffset":44648,
			"target":34962
		},
		{
			"buffer":0,
			"byteLength":20256,
			"byteOffset":75032,
			"target":34962
		},
		{
			"buffer":0,
			"byteLength":7704,
			"byteOffset":95288,
			"target":34963
		},
		{
			"buffer":0,
			"byteLength":26640,
			"byteOffset":102992,
			"target":34962
		},
		{
			"buffer":0,
			"byteLength":26640,
			"byteOffset":129632,
			"target":34962
		},
		{
			"buffer":0,
			"byteLength":17760,
			"byteOffset":156272,
			"target":34962
		},
		{
			"buffer":0,
			"byteLength":5976,
			"byteOffset":174032,
			"target":34963
		}
	],
	"samplers":[
		{
			"magFilter":9729,
			"minFilter":9987
		}
	],
	"buffers":[
		{
			"byteLength":180008,
			"uri":"ghost.bin"
		}
	]
}
